<?xml version="1.0" encoding="utf-8"?>
<!-- Generator: Adobe Illustrator 25.2.0, SVG Export Plug-In . SVG Version: 6.00 Build 0)  -->
<svg version="1.1" id="Layer_1" xmlns="http://www.w3.org/2000/svg" xmlns:xlink="http://www.w3.org/1999/xlink" x="0px" y="0px"
	 viewBox="0 0 619.9 562.4" style="enable-background:new 0 0 619.9 562.4;" xml:space="preserve">
<style type="text/css">
	.st0{fill:#FFFFFF;}
	.st1{clip-path:url(#SVGID_2_);}
	.st2{clip-path:url(#SVGID_4_);}
	.st3{fill:#F8E2B9;}
	.st4{fill:#C3B6A2;}
	.st5{fill:#88D1D1;}
	.st6{fill:#A19687;}
	.st7{fill:#CCA96A;}
	.st8{fill:none;}
	.st9{opacity:0.2;enable-background:new    ;}
	.st10{fill:#BF79B2;stroke:#6F287A;stroke-width:0.75;stroke-linejoin:round;}
	.st11{fill:#686C71;stroke:#211F1C;stroke-width:0.75;stroke-linejoin:round;}
	.st12{fill:#301616;stroke:#1C0E0A;stroke-width:0.75;stroke-linejoin:round;}
	.st13{fill:#301616;}
	.st14{fill:#587AB1;stroke:#323232;stroke-miterlimit:10;}
	.st15{fill:#7499C3;stroke:#323232;stroke-miterlimit:10;}
	.st16{opacity:0.2;fill:#020202;stroke:#201D1E;stroke-miterlimit:10;enable-background:new    ;}
	.st17{fill:#C27945;}
	.st18{fill:#89513A;}
	.st19{fill:#D48148;}
	.st20{opacity:0.12;enable-background:new    ;}
	.st21{fill:#DF71E2;stroke:#710E7C;stroke-width:0.75;stroke-linejoin:round;}
	.st22{fill:#E89B49;}
	.st23{fill:#F5BF71;}
	.st24{fill:#EDF3F3;}
	.st25{fill:#FFF2D9;}
	.st26{opacity:0.5;fill:#F1B350;enable-background:new    ;}
	.st27{fill:#DFDBED;}
	.st28{fill:#D4EADC;}
	.st29{fill:#E9E5E3;}
	.st30{fill:#FAD2C6;stroke:#453423;stroke-width:0.5;stroke-miterlimit:10;}
	.st31{fill:#453423;}
	.st32{fill:#61435B;stroke:#1C101A;stroke-width:0.5;stroke-miterlimit:10;}
	.st33{fill:#F6E0D9;}
	.st34{fill:#009196;}
	.st35{fill:#CACAC9;}
	.st36{fill:#DFDFDE;}
	.st37{fill:#D3D4D4;}
	.st38{fill:#EFEDED;}
	.st39{fill:#CBE9E8;}
	.st40{opacity:0.27;}
	.st41{fill:#C49AC6;}
	.st42{fill:#FAD2C6;stroke:#453423;stroke-width:0.75;stroke-miterlimit:10;}
	.st43{fill:#F8D0C5;stroke:#323232;stroke-miterlimit:10;}
	.st44{fill:#F8D0C5;stroke:#323232;stroke-width:0.5;stroke-miterlimit:10;}
	.st45{fill:#DA9C8D;}
	.st46{fill:#F8D0C5;stroke:#463424;stroke-width:0.5;stroke-miterlimit:10;}
	.st47{fill:#342517;}
	.st48{fill:#62445B;stroke:#1D111B;stroke-width:0.5;stroke-miterlimit:10;}
	.st49{fill:#FFFFFF;stroke:#3D2E18;stroke-width:0.5;stroke-miterlimit:10;}
	.st50{fill:#2D2B21;}
	.st51{fill:#F8D0C5;}
	.st52{fill:#49442E;}
	.st53{fill:#DA9C8D;stroke:#463424;stroke-width:0.5;stroke-miterlimit:10;}
	.st54{fill:#323232;}
	.st55{fill:#FAD2C6;}
	.st56{fill:#DB9D8E;stroke:#323232;stroke-width:0.25;stroke-miterlimit:10;}
	.st57{fill:none;stroke:#B6715D;stroke-miterlimit:10;}
	.st58{fill:#B6715D;}
</style>
<g>
	<path class="st0" d="M154.9,47.2h310c68.6,0,124.3,55.6,124.3,124.3V391c0,68.6-55.6,124.3-124.3,124.3H155
		c-68.6,0-124.3-55.6-124.3-124.3V171.5C30.6,102.8,86.2,47.2,154.9,47.2z"/>
	<g>
		<g>
			<g>
				<defs>
					<path id="SVGID_1_" d="M156.9,56.3h305.9c64.6,0,116.9,52.4,116.9,116.9v216c0,64.6-52.4,116.9-116.9,116.9H156.9
						C92.3,506,40,453.6,40,389.1v-216C40,108.6,92.4,56.3,156.9,56.3z"/>
				</defs>
				<clipPath id="SVGID_2_">
					<use xlink:href="#SVGID_1_"  style="overflow:visible;"/>
				</clipPath>
				<g class="st1">
					<g>
						<g>
							<g>
								<defs>
									<polygon id="SVGID_3_" points="596.3,601.5 -131.9,601.5 103.5,-120.4 589.2,-89.5 									"/>
								</defs>
								<clipPath id="SVGID_4_">
									<use xlink:href="#SVGID_3_"  style="overflow:visible;"/>
								</clipPath>
								<g class="st2">
									<path class="st3" d="M-208.6,398.9c-1.1,22.5-2.3,45.2,1.2,67.7c0.8,2.3,1.3,4.7,1.4,7.1h971.1c-0.4-7.1-0.7-14.2-0.9-21.3
										c-0.4-12.6-0.8-25.2-1.5-37.8l-109-51.7h-775.3l-86.5,25.3C-208.2,391.6-208.4,395.2-208.6,398.9z"/>
									<path class="st4" d="M828.1,653.2c-0.5-44.3-1-88.5-2.1-132.8c-1-38.2-2.3-76.3-3.1-114.4l-35.4-45.3L-274,360.6
										l-27.7,129.2l14.8,227.6h1116C828.6,696,828.3,674.7,828.1,653.2z"/>
									<polygon class="st5" points="-189.8,-12.2 -190.2,373.8 684.3,372.5 686.3,-12 									"/>
									<path class="st6" d="M-245.9,435.1h989.4l-1.7-1.1l-987.6-0.3C-245.8,434.2-245.8,434.6-245.9,435.1z"/>
									<path class="st6" d="M-245.1,481.6h989.3l-1.7-1.1l-987.5-0.3C-245.1,480.8-245.1,481.1-245.1,481.6z"/>
									<path class="st6" d="M-244.6,394.4h930.1l-1.7-1l-928.4-0.4L-244.6,394.4z"/>
									<path class="st6" d="M-95.8,636.8L33,386.5l-1.5-1.2l-131,251.4L-95.8,636.8z"/>
									<path class="st6" d="M73.1,644.2l76.1-273.6l-1.4-0.5L70.3,644.2H73.1z"/>
									<path class="st6" d="M243,777.5l5.5-419.2l-2,1.2l-6.9,418.3L243,777.5z"/>
									<path class="st6" d="M441.8,776.7l-80.6-416.5l-1.6,2.6L438,776.7H441.8z"/>
									<path class="st6" d="M661,769.2L463.4,370.9l-1,3.9l193.1,394.6h5.5V769.2z"/>
									<path class="st6" d="M804.5,664.8l-226-304.6l-0.6,4.2l226.9,309.8C804.6,671.2,804.6,668,804.5,664.8z"/>
									<polygon class="st7" points="-194.6,374 681.8,372.5 681.8,357.9 -194.6,359.4 									"/>
									<rect x="-185.5" y="-6.6" class="st8" width="853.9" height="480.3"/>
									<rect x="-188" y="-4" class="st8" width="853.9" height="480.3"/>
								</g>
							</g>
						</g>
					</g>
					<ellipse class="st9" cx="296.8" cy="457.9" rx="65.4" ry="20.1"/>
					<path class="st10" d="M330,392.6c0.2,1.4,0.3,3.1,0.4,5c0.1,3.2,0.1,6.3,0.1,9.4c-0.3,13.4-2.3,26.7-5.9,39.7l-12.4,5.9
						l-4.9-43.1l-1.1-10l4.9-4.5l3.8-3.5C314.9,391.5,327.3,373.8,330,392.6z"/>
					<path class="st10" d="M330.5,396.9c0.2,1.4,0.3,3.1,0.4,5c0.1,3.2-0.9,6.1-1,9.2c-3.6,1.1-7.2,1.9-10.9,2.5
						c-2.8,0.4-7.6,1.1-11.2,0.2l-1.1-10l4.9-4.5c2.6-1,5.4-1.8,8.1-2.1C323.3,396.5,326.9,396.5,330.5,396.9z"/>
					<path class="st10" d="M309,420c0,0,13.3,3.4,20.7-4.8c0,0-1.8,21.6-4.5,24.1s-14,0.5-14,0.5L309,420z"/>
					<path class="st10" d="M307.8,419.5c0,0.1,0,0.1,0.1,0.2c0.5,0.5,3.6,2.9,13,1.1c10.4-2,10.5-6.3,10.5-6.3v-2.1
						c0-0.2-0.2-0.3-0.3-0.3c-0.1,0-0.1,0-0.2,0.1c-2.4,1.6-13.5,8.2-23.1,4.2c-0.1-0.1-0.3,0-0.4,0.1v0.1L307.8,419.5z"/>
					<polygon class="st10" points="332.5,371.2 331,380.6 333.5,402.1 304.8,404.2 304.5,401.2 303.9,393.5 302.9,380.6 
						301.6,364.2 					"/>
					<path class="st10" d="M304.2,402.5c4,0.2,22.9,0.9,29.4-3.5c0.5-0.3,1.2-0.1,1.2,0.4l0.2,7.3c0,0.3-0.2,0.5-0.4,0.6
						c-2.8,1.1-18.4,6.4-31.1,1.9c-0.3-0.1-0.4-0.3-0.4-0.6l0.3-5.5C303.4,402.8,303.8,402.5,304.2,402.5z"/>
					<path class="st11" d="M311.3,451.4c-0.7,1.2-0.8,2.6-0.3,3.9c0.9,2,6.4,3.1,6.4,3.1s4.4,8.1,18.1,6.5
						c15.6-1.9,8.8-12.2,8.8-12.2L311.3,451.4z"/>
					<path class="st12" d="M317.9,455.1c0,0-0.5,9.5,17.2,8.1c16.6-1.3,14.4-17.5-6.5-15.9S317.9,455.1,317.9,455.1z"/>
					<path class="st12" d="M325.4,445.2c2.4,0.5,4.8,1.2,7.1,2.1c0,0-7.6-0.3-14.1,10l-6.2-2.8c0,0-3-2-0.3-6l-0.8-5.5
						c4.9,1.2,10,1,14.9-0.3C325.8,443.5,325.6,444.5,325.4,445.2z"/>
					<path class="st10" d="M295.2,405.2c-0.7,1.8-1.4,3.6-2.1,5.4c-9,23.2-14.1,41.5-14.1,41.5l-9.8-2.4
						c-3.4-14.7-0.6-34.3,1.2-43.8c0.7-3.5,1.2-5.7,1.2-5.7S305.4,379.6,295.2,405.2z"/>
					<path class="st10" d="M293.8,408.5c-0.7,1.8-2,4.3-2.7,6.1c-1.8,0.2-3.5,0.2-5.3,0.1c-4-0.2-7.9-1-11.6-2.4
						c-1.4-0.5-2.8-1.2-4.1-2.1c0.4-2,0.7-3.9,0.8-5.9C270.8,404.4,303.9,382.8,293.8,408.5z"/>
					<path class="st10" d="M269.3,416.6c0,0,6.6,7.5,19.6,4c0,0-6.6,19-9.6,27.8l-7.1,3.9l-4.1-15
						C268.1,437.4,267.5,423.9,269.3,416.6z"/>
					<path class="st10" d="M267.8,419c0,0.1,0,0.1,0,0.2c0.4,0.7,3.1,5.2,10.7,6.3s10.9-0.7,11.5-1.1c0.1,0,0.1-0.1,0.1-0.1l1.1-2.9
						c0-0.1,0-0.3-0.2-0.4c-0.1,0-0.1,0-0.2,0c-2.6,0.6-14.4,2.6-22.1-4.9c-0.1-0.1-0.3-0.1-0.4,0l-0.1,0.1L267.8,419z"/>
					<path class="st11" d="M275,460c-0.2,4.1-3.2,9.2-17,8.5c-6-0.3-10-3.8-9.7-7.8s9.6-8.8,15.5-8.5S275.2,456,275,460z"/>
					<path class="st11" d="M278.5,450.5c1.8,4.9,2.5,13.9-9.9,11.1c-5.8-1.3-10.9-2.5-10.7-6.5s6.8-6.6,12.7-6.3
						S277.4,447.5,278.5,450.5z"/>
					<path class="st12" d="M264.5,447.9c-2.7,0.4-5.3,1.3-7.6,2.7c-1.5,0.9-2.9,1.9-4.1,3.1l4.6,2.8c0,0,11.2,6,17.6,3.6
						s4.9-11.4,4.9-11.4c0.7-2.1,1.4-4.3,2.1-6.4c-2.5,0.7-5.2,0.8-7.8,0.2c-3.2-0.8-5.4-2.5-6.3-1.8s0.6,2.4-0.2,4.4
						C267,446.4,265.9,447.4,264.5,447.9z"/>
					<path class="st13" d="M276,459.9c-0.7,4.4-11.4,9.1-22.1,5.8c-5.9-1.8-6.7-4.4-4.5-8.3c2.8-5.1,8.4-6.4,13.2-5.3
						C268.6,453.5,276.6,455.5,276,459.9z"/>
					<path class="st8" d="M269.8,455.9c-0.1,1.6-2.9,2.7-6.3,2.5s-6.1-1.6-6-3.2s2.9-2.7,6.3-2.5S269.9,454.2,269.8,455.9z"/>
					<path class="st14" d="M305.6,373.2l0.8,15.6l-6.5,5.7l-1.2,3.6l-2.5,7.8l-0.9,0.2c-8.2,2-25-3.9-25-3.9l1.2-22.7l1.3-10.9
						L305.6,373.2z"/>
					<path class="st15" d="M270.8,398c4,1.8,15.8,6.4,25.8,4.4c0.6-0.1,1.2,0.3,1.4,0.9c0,0.2,0,0.3,0,0.5l-1.4,6
						c-0.1,0.4-0.4,0.8-0.9,0.9c-3.3,0.8-17.1,3.3-26.9-5.7c-0.3-0.3-0.4-0.6-0.4-1l0.7-5c0.1-0.6,0.7-1.1,1.3-1
						C270.6,398,270.8,398,270.8,398z"/>
					<polygon class="st16" points="175.9,476.8 135.4,535.7 468.8,533.5 432.3,476.8 					"/>
					<path class="st17" d="M465.2,543.8c4,0,7.2-3.7,7.2-8.4V397.1c0-4.6-3.2-8.4-7.2-8.4s-7.2,3.7-7.2,8.4v138.3
						C458,540,461.2,543.8,465.2,543.8z"/>
					<path class="st18" d="M428,491.7c4,0,7.2-3.7,7.2-8.4V345c0-4.6-3.2-8.4-7.2-8.4s-7.2,3.7-7.2,8.4v138.3
						C420.8,488,424,491.7,428,491.7z"/>
					<path class="st17" d="M138.8,543.8c-4,0-7.2-3.7-7.2-8.4V397.1c0-4.6,3.2-8.4,7.2-8.4s7.2,3.7,7.2,8.4v138.3
						C145.9,540,142.8,543.8,138.8,543.8z"/>
					<path class="st18" d="M175.9,491.7c-4,0-7.2-3.7-7.2-8.4V345c0-4.6,3.2-8.4,7.2-8.4s7.2,3.7,7.2,8.4v138.3
						C183.1,488,179.9,491.7,175.9,491.7z"/>
					<path class="st19" d="M121.6,373.6h364.2l0,0v65.2c0,0.3-0.2,0.5-0.5,0.5H122.1c-0.3,0-0.5-0.2-0.6-0.5L121.6,373.6
						L121.6,373.6L121.6,373.6z"/>
					<polygon class="st20" points="121.6,388.5 485.8,384.9 485.8,373.6 121.6,373.6 					"/>
					<path class="st21" d="M277.8,273.5l-5.4,50.3c69.7,1.1,64.9-3.8,64.9-3.8c-2.4-17.7,1-49.6,1-49.6c2.3-1.4,2-2.8,2-2.8l5-16.2
						l-8.8-11c-24.2-6.7-18.5-7.8-43.6-2.5l-15,19.7L277.8,273.5z"/>
					<path class="st22" d="M504.4,368.4H102.9v11.5c0,1.4,1.1,2.5,2.4,2.5l0,0H502c1.4,0,2.5-1.1,2.4-2.5l0,0V368.4L504.4,368.4z"/>
					<path class="st23" d="M500.6,372H106.7c-2.2-0.1-3.9-1.9-3.8-4c0-0.6,0.2-1.1,0.4-1.6l28.2-41.1c0.6-1.3,1.9-2.2,3.4-2.2h340
						c1.5,0,2.8,0.9,3.4,2.2l25.7,41.1c1,1.9,0.2,4.3-1.7,5.3C501.8,371.9,501.2,372,500.6,372z"/>
					<path class="st24" d="M371.6,352.2c-1.5,0.2-10.9,4.7,2.5,2.8s22.4-9.4,10-6.1L371.6,352.2z"/>
					<path class="st24" d="M240.5,347c-14.8,4.2-8,9.4-4.2,8.1s6.9-2.1,6.9-2.1s-5.4-2.8,4.4-3.2c9.8-0.4,16.4-0.5,12.8,2
						s-3.4,3.6-1.3,3.7s8.5-2.6,8.5-2.6c3-3.2,3.5-7.6,2.6-6.8s-5,0.3-7.6-0.1c-10.1-1.6-13.2-0.9-17.6,0"/>
					<path class="st24" d="M247.6,328.1c-3.3,1.3,0,5.2,0,5.2l4.6-1.1l3.6-1.5l7.9-1.9l-4.1-3.1L247.6,328.1z"/>
					<path class="st24" d="M258.4,322.4c-3.3,1.3,0,5.2,0,5.2l4.6-1.1l3.6-1.5l7.9-1.9l-4.1-3.2L258.4,322.4z"/>
					<path class="st24" d="M254.4,341c0,0,6.4,0.5,9.4-1.8s-0.6-5.3,5.4-5.4s3.9-1.5,3.9-1.5s-3.9-5.7-3.9-2.1S254.4,341,254.4,341z
						"/>
					<path class="st24" d="M268.6,332.6c0,0,6.4,0.5,9.4-1.8s-0.6-5.3,5.4-5.4s3.9-1.5,3.9-1.5s-3.9-5.7-3.9-2.1
						S268.6,332.6,268.6,332.6z"/>
					<path class="st25" d="M447,342.8c0,0,28.3-10.8,28.8,6.1c0,0-2,14.1-30.5,3.7C445.4,352.5,436.8,346.6,447,342.8z"/>
					<path class="st26" d="M399.9,360c0,0,26.3-15.8,29.8,0.8c0,0,14.2,10.4-16,5.4C413.8,366,390.3,365.8,399.9,360z"/>
					<path class="st27" d="M404.6,333.8c0,0,0.4-12.4,15.5-5.6c0,0,12.8-3.7,10,6.2c0,0,16.2,1.5-0.7,6.9
						C429.4,341.4,406.8,343.1,404.6,333.8z"/>
					<path class="st28" d="M291.8,363.2c-0.2-0.6-10.3-10-8.6-11.3c0.9-0.1,12.2-3.8,13.5-2.2c0,0,7.9,10.1,8.2,10.4s4,2.6,4,2.6
						L291.8,363.2z"/>
					<path class="st28" d="M352,353.4c-0.1,0-0.6-0.3-1.4-0.8h-0.4c-1.7,0.1-3.3-0.9-4-2.5l-0.4-0.2c-1.7,0.5-3.5,0.8-5.3,0.8
						c-0.7,0.1-1.4,0.1-2.1-0.1c-0.2,0-0.4-0.1-0.5-0.2c-2.3-0.1-4.1-1.9-4.4-4.1c-0.2-0.6-0.3-1.2-0.2-1.8h-0.5h-0.3
						c-0.9,1.8-3.4,3.1-5.3,2.4h-0.1c-0.1,0.3-0.2,0.7-0.4,1c-1.3,2.2-4.1,2.9-6.2,1.6c-2-1.3-4-3.2-4.1-5.9l0,0
						c-6.3,0.7-12,1.5-13,1.6c-3.8,1.3,18.9,10.7,19.3,11.3l38.3-0.5C361,356,352.9,353.6,352,353.4z"/>
					<path class="st29" d="M354.8,334.4c0,0,11.8-4.9,14.2-2.6l10.5,12.3l-8.7,2.4C370.8,346.5,354.4,339.2,354.8,334.4z"/>
					<path class="st10" d="M357.5,258.2c0.2,0.9,0.1,1.8-0.3,2.7l-2.3-2.5L357.5,258.2z"/>
					<path class="st30" d="M360.5,302.5c-3.8-20.2-10.9-24.1-15.3-27.9c0,0,4.3-12.6,12.4-14.8c9.9,11.3,13.4,9.5,15.7,35.7
						c0,0,4,10.6,2.5,21.1c-12-6.5-9.6-8.7-9.6-8.7c-0.4-0.9-0.9-1.7-1.6-2.4c-1-0.9-4.6-6.5-4.6-6.5"/>
					<path class="st31" d="M352.4,272.9c-1,2.3-1,5,0,7.3C350.5,278.5,351.1,274.8,352.4,272.9z"/>
					<path class="st32" d="M305.8,285.5c0.1,0.4,0.1,0.8,0.2,1.1l0,0c1.8,11.5,6.9,17.9,6.9,17.9c2.1-1.9,4.1-4,5.9-6.1
						c0.9-1.1,1.5-2,2.1-2.8c0.8-1.1,1.5-2.4,2-3.7c0.2-1.4,0.3-2.7,0.4-4s0.2-2.3,0.2-3.5c0.1-3.2,0.1-6,0-8.5
						c0-1.3-0.1-2.5-0.2-3.5c-0.7-7.1-2.1-10.7-1.9-11.2c0.5-1.4-5.2-1.8-5.2-1.8c-0.5,2.3-1.2,4.6-2,6.8c-0.3,0.8-0.5,1.5-0.9,2.3
						c-0.9,2.2-1.8,4.5-2.7,6.6c-0.3,0.7-0.6,1.5-1,2.2c-1.1,2.6-2.2,4.8-2.9,6.2C306.1,284.9,305.8,285.5,305.8,285.5z"/>
					<path class="st33" d="M313.5,267c3.7,1.9,7,4.5,9.8,7.5c0-1.3-0.1-2.7-0.2-3.8c-2.6-2.4-5.6-4.4-8.7-6.1
						C314.1,265.5,313.8,266.2,313.5,267z"/>
					<path class="st33" d="M310,276.5c3.7,2.4,9.8,6.8,12.9,10.6c0.1-1.2,0.2-2.7,0.3-3.8c-3.6-3.6-7.7-6.6-12.2-9.1
						C310.8,275,310.3,275.8,310,276.5z"/>
					<path class="st33" d="M306.2,284.8c0.1,0.4,0.1,0.9,0.1,1.3l0,0c3.6,2.6,9.1,7.1,12.2,11.8c0.9-1.1,1.5-2.1,2.1-2.9
						c-4.1-4.5-8.6-8.5-13.6-12C306.5,284.1,306.2,284.8,306.2,284.8z"/>
					<path class="st34" d="M332.9,338.4c13.8-7.8,33.2-13.1,48.6-14.1c0.1-0.2,0.1-0.4,0.1-0.7l-24-19c-9.3-2.5-26.3,4-32.2,10.4
						L332.9,338.4z"/>
					<path class="st35" d="M332.4,336.9c14.6-8,30.8-12.9,47.4-14.3c0.3-0.9,0.6-1.9,0.8-2.9l-23.5-17c-9.3-2.5-26.3,4-32.2,10.4
						L332.4,336.9z"/>
					<path class="st36" d="M331.8,335c12.6-9.2,33.4-14.9,48.8-15.2l-23.5-17c-9.3-2.5-26.3,4-32.2,10.4L331.8,335z"/>
					<path class="st37" d="M380.8,320L380.8,320c-16.5,0.3-37,6.7-48.7,15.1c-0.1,0-0.1,0.1-0.2,0.1s-0.1,0-0.2-0.1l-6.9-21.8
						c0,0,0-0.1,0-0.2c6.1-6.6,23.2-13,32.4-10.5h0.1l23.6,17c0,0.1,0,0.1,0,0.2C380.8,319.9,380.8,319.9,380.8,320z M353.1,324.5
						c8.7-2.9,17.8-4.5,26.9-4.9L356.9,303c-9-2.5-25.8,3.8-31.8,10.2l6.8,21.5C338.4,330.2,345.6,326.9,353.1,324.5z"/>
					<path class="st38" d="M331.8,335c11.8-9.9,32.3-16.9,48.5-17.1l-23.2-15.1c-9.3-2.5-26.3,4-32.2,10.4L331.8,335z"/>
					<path class="st37" d="M331.9,335.1h-0.1c-0.1,0-0.1,0-0.2-0.1l-6.9-21.8c0,0,0-0.1,0-0.2c6.1-6.6,23.2-13,32.4-10.5h0.1
						l23.3,15.2c0.1,0,0.1,0.1,0,0.2c0,0.1-0.1,0.1-0.2,0.1C363.9,318.1,343.5,325.3,331.9,335.1L331.9,335.1z M325.1,313.1
						l6.8,21.5c11.5-9.5,31.4-16.6,47.7-16.9L356.9,303C347.9,300.5,331.2,306.8,325.1,313.1L325.1,313.1z"/>
					<path class="st0" d="M331.8,335c11.7-12.2,31.2-19.2,47.8-19.6l-22.5-13c-9.3-2.5-26.3,4.4-32.2,10.8L331.8,335z"/>
					<path class="st37" d="M331.9,335.1h-0.1c-0.1,0-0.1,0-0.2-0.1l-6.9-21.8c0,0,0-0.1,0-0.2c6.2-6.8,23.4-13.4,32.5-10.9l22.6,13
						c0.1,0,0.1,0.1,0.1,0.2s-0.1,0.1-0.2,0.1C361.6,316,342.9,323.6,331.9,335.1C331.9,335,331.9,335.1,331.9,335.1z M325.1,313.1
						l6.8,21.4c10.9-11.2,29.3-18.8,47-19.4l-22-12.7C348.1,300,331.3,306.5,325.1,313.1L325.1,313.1z"/>
					<path class="st34" d="M333.1,338.4c-16-0.1-36.1,4.6-50.6,11.2c-0.1-0.2-0.3-0.3-0.4-0.5l13.7-28.4c7.4-6.8,25.8-9.3,34-6.5
						L333.1,338.4z"/>
					<path class="st35" d="M332.9,336.9c-17.1,0.1-34,3.7-49.6,10.5c-0.7-0.7-1.4-1.4-2-2.2l18.3-26.5c7.4-6.8,21.7-9.2,29.9-6.4
						L332.9,336.9z"/>
					<path class="st36" d="M332.6,334.9c-15.6-1.9-37,3.1-51.3,10.3l18.8-26.6c7.4-6.8,21.1-9.1,29.3-6.3L332.6,334.9z"/>
					<path class="st37" d="M281.3,345.4c-0.1,0-0.1,0-0.2,0c-0.1-0.1-0.1-0.1,0-0.2l0,0l18.8-26.6c7.7-7,21.8-9,29.6-6.4
						c0.1,0,0.1,0.1,0.1,0.1l3.1,22.6c0,0.1,0,0.1-0.1,0.2c-0.1,0-0.1,0-0.2,0C318.1,333.2,296.6,337.6,281.3,345.4L281.3,345.4z
						 M300.3,318.6l-18.4,26.1c13.1-6.5,34.3-11.9,50.4-10l-3.1-22.2C321.6,309.9,307.9,311.8,300.3,318.6z"/>
					<path class="st38" d="M332.6,334.9c-15.1-3-37.2,0.3-52.2,8l16.7-24.3c7.4-6.8,24.1-9.1,32.3-6.4L332.6,334.9z"/>
					<path class="st37" d="M332.6,335h-0.1c-15.3-3-37.2,0.3-52,8c-0.1,0.1-0.2,0.1-0.3,0c-0.1-0.1-0.1-0.2,0-0.2l16.7-24.3
						c7.5-6.9,24.2-9.3,32.6-6.4c0.1,0,0.1,0.1,0.1,0.1l3.1,22.6C332.8,335,332.8,335,332.6,335L332.6,335z M302.8,335.2
						c10.3-2,20.9-2.3,29.5-0.6l-3.1-22.2c-8.1-2.7-24.7-0.3-31.9,6.3L281,342.4C287.9,339,295.2,336.6,302.8,335.2L302.8,335.2z"/>
					<path class="st0" d="M332.6,334.9c-15.8-5.5-38.7-2-52.6,5l15.5-21.5c7.4-6.8,25.8-8.9,34-6.1L332.6,334.9z"/>
					<path class="st37" d="M332.6,335h-0.1c-16.3-5.6-39.2-1.7-52.4,5c-0.1,0.1-0.2,0.1-0.3,0c-0.1-0.1-0.1-0.2,0-0.2l15.5-21.5
						c3.4-3.1,9.6-5.6,16.8-6.7c6.7-1,13.3-0.8,17.4,0.5c0.1,0,0.1,0.1,0.1,0.1l3.1,22.6C332.8,335,332.8,335,332.6,335L332.6,335z
						 M299,333.5c11.1-2.1,23.4-2.3,33.4,1l-3-22.2c-8.5-2.8-26.6-0.4-33.6,6l-15.1,20.9C286.5,336.6,292.6,334.6,299,333.5
						L299,333.5z"/>
					<path class="st39" d="M354,304.8c0-0.1-0.2-0.2-0.3-0.2l0,0c-10.2,1.6-19.2,5.8-25.3,11.9c-0.1,0.1-0.1,0.2-0.1,0.3
						c0,0,0,0,0.1,0.1c0.1,0,0.2,0,0.3,0c0,0,0.1,0,0.1-0.1c6-5.9,14.8-10.1,24.9-11.6C353.8,305,353.9,304.9,354,304.8z M357,306
						c0-0.1-0.2-0.2-0.3-0.2l0,0c-10.9,2.1-19.5,6.4-27.2,13.5c-0.1,0.1-0.1,0.2,0,0.3l0,0c0.1,0.1,0.2,0.1,0.3,0c0,0,0.1,0,0.1-0.1
						c7.5-7,16.1-11.2,26.8-13.3C356.9,306.4,357,306.1,357,306L357,306z M360.2,307.5c0-0.1-0.2-0.2-0.3-0.2l0,0
						c-12.8,2.8-19.1,5.6-29.2,15.4c-0.1,0.1-0.1,0.2-0.1,0.3c0,0,0,0,0.1,0.1c0.1,0,0.2,0,0.3,0c0,0,0.1,0,0.1-0.1
						c9.9-9.7,16.2-12.4,28.8-15.2C360.1,307.8,360.2,307.6,360.2,307.5L360.2,307.5z M332.3,326.1c0.1,0,0.2,0,0.3,0l0.1-0.1
						c10.9-11.2,18.4-13.5,30-16.5c0.2,0,0.3-0.2,0.2-0.3c0-0.1-0.2-0.2-0.3-0.2c-11.7,3-19.3,5.3-30.3,16.7
						C332.2,325.9,332.1,326,332.3,326.1C332.2,326,332.2,326.1,332.3,326.1L332.3,326.1z M333.6,329.6c0.1,0.1,0.3,0.1,0.4-0.1
						c10.4-10.5,19.9-14.7,32.7-17.8c0.2,0,0.3-0.2,0.2-0.3c0-0.1-0.2-0.2-0.3-0.2l0,0c-12.9,3.2-22.5,7.4-33,18
						C333.5,329.4,333.5,329.5,333.6,329.6C333.6,329.5,333.6,329.6,333.6,329.6L333.6,329.6z"/>
					<path class="st39" d="M301.8,316c8.6-2.2,16.9-1.5,23.6,1.8h0.1c0.1,0,0.2,0,0.2-0.1c0.1-0.1,0-0.3-0.1-0.3l0,0
						c-6.8-3.4-15.3-4.1-24-1.9c-0.1,0-0.2,0.2-0.2,0.3l0,0C301.5,316,301.6,316.1,301.8,316L301.8,316z M299.8,318.4
						c8.6-2.1,17.6-1.1,25.6,2.6h0.1c0.1,0,0.2,0,0.2-0.1c0.1-0.1,0-0.3-0.1-0.3l0,0c-8.1-3.8-17.3-4.8-26-2.7
						c-0.1,0-0.2,0.2-0.2,0.3C299.5,318.2,299.6,318.4,299.8,318.4L299.8,318.4z M297.7,320.9c11-2,16.9-1.7,27.9,3.7h0.1
						c0.1,0,0.2-0.1,0.2-0.1c0.1-0.1,0-0.3-0.1-0.3l0,0c-11.1-5.5-17.1-5.8-28.2-3.7c-0.1,0-0.2,0.1-0.2,0.3l0,0
						C297.4,320.8,297.5,320.9,297.7,320.9L297.7,320.9L297.7,320.9z M325.5,327.5c-12.4-6.6-19.2-6-29.5-4.5
						c-0.1,0-0.2,0.1-0.2,0.3l0,0c0,0.1,0.2,0.2,0.3,0.2c10.2-1.5,16.9-2.1,29.2,4.5h0.1c0.1,0,0.2-0.1,0.2-0.1
						C325.6,327.7,325.6,327.6,325.5,327.5z M325.5,331.2c-11.8-6.1-20.8-6.6-32.1-4.8c-0.1,0-0.2,0.1-0.2,0.3l0,0
						c0,0.1,0.2,0.2,0.3,0.2c11.2-1.7,20.1-1.2,31.8,4.8h0.1c0.1,0,0.2,0,0.2-0.1C325.6,331.5,325.6,331.4,325.5,331.2L325.5,331.2z
						"/>
					<path class="st24" d="M332.4,312.1c0,0,11.9-18.4,15.3-18s-2.8,3.3-1.8,4.6s8.7-0.3,11.2,0.8s-6.7,6.8-3.6,8.3s11,0.8,12.7,2.7
						s-10.4,5.8-10.4,5.8c-6.3,0.4-6.7-0.2-9.9,4.2s-7.6,6.4-9.5,6.4s-4,5.8-4,5.8L332.4,312.1L332.4,312.1z"/>
					<path class="st24" d="M331.2,310.4l-3-9.8c-1.8-3.8-10-14-9.8-9.8s-0.8,7.4-4.2,6.2s-0.3,4.1,1,4.6s5,2.6,5,2.6l-7.5,1.7
						c0,0-8.2,5.6,5.8,12.3s14,10.9,14,10.9L331.2,310.4z"/>
					<g class="st40">
						<path class="st0" d="M334.1,323.4c0,0,6.1-12.8,19.5-11.4"/>
						<path class="st31" d="M334.1,323.4c3.4-7.3,11.3-12.8,19.5-11.4c-2-0.1-4,0.1-5.9,0.6C341.8,314,337.1,318.2,334.1,323.4z"/>
					</g>
					<g class="st40">
						<path class="st0" d="M328.6,322.6c0,0-6-12-19.2-10.7"/>
						<path class="st31" d="M328.6,322.6c-4-6.6-11.3-11.2-19.2-10.7C317.3,310.6,325.2,315.6,328.6,322.6z"/>
					</g>
					<g class="st40">
						<path class="st0" d="M329.5,318.2c0,0-6-12-19.2-10.7"/>
						<path class="st31" d="M329.5,318.2c-4-6.6-11.3-11.2-19.2-10.7C318.2,306.4,326.1,311.2,329.5,318.2z"/>
					</g>
					<g class="st40">
						<path class="st0" d="M332.3,319c0,0,6.1-12.8,19.5-11.4"/>
						<path class="st31" d="M332.3,319c3.4-7.3,11.3-12.8,19.5-11.4c-2-0.1-4,0.1-5.9,0.6C340,309.6,335.3,314,332.3,319z"/>
					</g>
					<g class="st40">
						<path class="st0" d="M330.6,315.6c0,0,5.2-13.2,18.6-12.7"/>
						<path class="st31" d="M330.6,315.6c2.8-7.5,10.4-13.5,18.6-12.7c-2,0.1-4,0.4-5.9,1C337.6,305.8,333.2,310.5,330.6,315.6
							L330.6,315.6z"/>
					</g>
					<path class="st41" d="M305.5,256.6c-0.5,3.3,9.4,4.5,9.6,1.1C315.6,254.5,305.8,253.4,305.5,256.6z"/>
					<path class="st42" d="M261.4,261.9c0,0-13.7,13.8-9.5,17.8l5,5c0,0,14.5-7.9,14.2-8.5S272.9,263,261.4,261.9z"/>
					<path class="st43" d="M327.9,249.7c-4.9,5.3-27.8,4.6-24.7-8.2C305.5,236,328.1,243.4,327.9,249.7z"/>
					<path class="st21" d="M327.9,244.3l9.9-1.4c8.9,4.7,21.9,17.3,21.9,17.3c-9,5.1-12,16.5-12,16.5s-8.4-4.9-12.4-8.9"/>
					<path class="st44" d="M350.2,227.4c-3.5,4.5-9,5.6-12.7,2.9s-1.6-5.1,1.9-9.6s3.5-3.9,7.9-5
						C357.1,213.3,353.8,222.9,350.2,227.4z"/>
					<path class="st45" d="M348.4,218.1c6.7-0.3-2.9,13.4-6.2,10.8c-1.1-2.7,2.9-3.5,4.2-5.1c0.9-1.6-1.5-1.9-2.6-2
						C344.2,219.8,346.6,218.5,348.4,218.1z"/>
					<path class="st21" d="M304.6,237c2,2.6,4.1,5.4,6.5,8.2s4.6,5.2,6.8,7.4c-3.7,4.1-7.8,11.1-11.4,15.2c-0.6-1.9-1.5-4.5-2.6-7.6
						c-0.7-2.2-1.5-4.6-3.2-9.8c-1.1-3.5-2.6-8-4.3-13.4l2.6-2.3L304.6,237z"/>
					<path class="st21" d="M334,237.4c-1.2,2.9-2.7,5.8-4.5,8.4c-2.2,3.2-4.8,6.2-7.7,8.7c3.9,3.7,6.9,9.3,10.8,13
						c1.6-4.6,4.1-11.5,5.6-16.7c1.1-3.9,2-7.6,2.8-11.2l-4.8-3.6L334,237.4z"/>
					<path class="st46" d="M346.1,193.4c-14.4-12.5,9.4-20.5-12.2-24.3c-21-3.6-35.1,4.7-39,23.1c-1.8,8.5-0.7,17.9-0.9,18.4
						c-7,28.6,19.7,45.5,39.7,33.8c6.9-3.7,12.9-10.1,15.6-25.2C349.5,218.6,358.1,203.8,346.1,193.4z"/>
					<path class="st45" d="M309.6,185.7c0,0,3.3,7.1,26.9,11.2l-0.1-3.3c0,0,0.6,4.6,13.9,9.5l-0.9,17.2l10.2-34.5l-48.9-12.9
						l-9,6.4l-1.3,9.5c0,0-8.2,18-8.5,24.6l1.6,0.5c3.7-3.5,6-9.1,7.9-13.8C301.2,200.2,305.6,203.1,309.6,185.7z"/>
					<path class="st47" d="M308.5,180.7c0,0-3.8,6.9,27.4,14.4c0,0-0.7-0.5-2.1-8.4c1.9,9.7,10,11.4,15.7,14.4l4.3-8.8l-4.4,28.2
						c3.3-6.6,9.5-13.8,10.2-26.6c0.5,2.1,0.7,4.2,0.8,6.3c0,0,10.4-18.6-7.8-30.1c0,0,2.6-0.4,7,2.9c-1.6-10.1-34.7-29.6-50.4-12.8
						c0,0-8.7-6.7-16.7,6.9c0,0,7.8-3.7,10.2-1.4c0,0-7.9-1.7-13.8,13.3c-5,12.6-0.8,24.2,4.3,35.3c4.2-5.8,6.7-12.8,7.1-20l1.8,5
						C302,199.4,307.9,196.8,308.5,180.7z"/>
					<path class="st48" d="M323.8,253.7c-0.6-0.4-2.5-2.5-7.3-1.6s-0.1,7.4-0.1,7.4l4.9,0.8C321.4,260.4,328.8,256.8,323.8,253.7z"
						/>
					<path class="st49" d="M320,210.4c0.4,8.9-13.1,9.7-13.8,0.9C305.8,202.4,319.2,201.7,320,210.4z"/>
					<path class="st50" d="M318,214.8c0.1,2.7-8,4.4-8,0.5C309.5,210.1,318,209.6,318,214.8z"/>
					<path class="st0" d="M313.2,212.6c0.2,0.6-0.1,1.3-0.7,1.5s-1.3-0.1-1.5-0.7c0-0.1,0-0.1-0.1-0.2c-0.2-0.6,0.1-1.3,0.7-1.5
						s1.3,0.1,1.5,0.7C313.2,212.4,313.2,212.5,313.2,212.6z"/>
					<path class="st49" d="M344.4,215.8c-1.1,9-14.4,7.7-13.6-1.4C331.8,205.3,345.1,206.7,344.4,215.8z"/>
					<path class="st50" d="M342.3,219.1c0.1,2.7-8,4.4-8,0.5C333.8,214.4,342.3,213.9,342.3,219.1z"/>
					<path class="st0" d="M337.5,216.9c0.2,0.6-0.1,1.3-0.7,1.5s-1.3-0.1-1.5-0.7c0-0.1,0-0.1-0.1-0.2c-0.2-0.6,0.1-1.3,0.7-1.5
						s1.3,0.1,1.5,0.7C337.5,216.7,337.5,216.8,337.5,216.9z"/>
					<path class="st51" d="M321,221.8c2.1,3.9,12.4,4.5,9.2-2.7"/>
					<path class="st52" d="M321,221.8c2,1.8,7.1,2.9,8.9,0.6c0.4-1.1,0.5-2.2,0.3-3.4c1.5,1.5,1.9,4.5-0.3,5.8
						C326.9,226.7,322,225.2,321,221.8z"/>
					<path class="st46" d="M293.1,222c-12.6,8-15-25.2-3.9-16.3c2.5,2.1,4.2,5.1,4.7,8.4"/>
					<path class="st53" d="M287.5,207.6c-5.1-1.9-2.7,10.2-0.6,12c1,0.8,2-0.3,1.9-1.4c0-1.4-0.9-2.5-1.6-3.7
						c-1.3-2.1,0.6-2.7,2.4-2C290.1,210.8,288.8,208.6,287.5,207.6z"/>
					<path class="st21" d="M295.2,237.8c-14.1-1.4-29,16.8-34.3,23.7c0,0,9.9,7,13.1,16.8"/>
					<path class="st54" d="M286.1,254c0.4,4.4,0.9,11.4-4,13.5v-0.1C285.5,263.9,285.9,258.5,286.1,254L286.1,254z"/>
					<path class="st30" d="M261.6,269c5.7,1.6,12.4,1.3,18.1,0c13.5,12.2-19.1,33.5-28.3,10"/>
					<path class="st30" d="M275.9,271.4c0,0,5.4-3.4,7.5-6.4c0,0,11.7,2.7,11.7,9c0,5.6-4.2,2.8-4.2,2.8s2.3,5-2.7,4.2
						c0,0,1.3,5.2-3.7,4.3c0,0-1.4,3.9-5.1,1.2c-2.8,0.6-5.7,0.2-8.2-1.2"/>
					<path class="st31" d="M279.4,286c-1.5-0.5-3.4-1.7-3.7-3.3C277,283.9,277.9,285.2,279.4,286z"/>
					<path class="st55" d="M290.9,276.6c-1.4-1.5-3.1-2.7-5-3.4"/>
					<path class="st31" d="M290.9,276.8c-1.5-1.5-3.3-2.3-5-3.4c1,0.1,2,0.5,2.8,1.3C289.6,275.1,290.3,276,290.9,276.8L290.9,276.8
						z"/>
					<path class="st55" d="M288.2,280.9c-1.1-1.4-2.4-2.6-3.9-3.6"/>
					<path class="st31" d="M288.2,280.9c-1.2-1.3-2.7-2.2-3.8-3.5c0.9,0.2,1.6,0.8,2.2,1.5C287.2,279.5,287.8,280.1,288.2,280.9
						L288.2,280.9z"/>
					<path class="st55" d="M284.5,285.2c-0.9-1.2-2-2.4-3.2-3.3"/>
					<path class="st31" d="M284.5,285.2c-1-1.2-2.3-2-3.2-3.3c0.8,0.2,1.4,0.7,1.9,1.4C283.8,283.9,284.2,284.5,284.5,285.2
						L284.5,285.2z"/>
					<path class="st0" d="M284.1,264.5c0.4-3.5,0.6-7.1,0.5-10.6c-0.3-3.8,2.2-2.7,2.6-1.6s0.8,2.2,1.1,3.4l1.8-4.3l6.1,1v1.6
						l-4.9,4.1l9-3.1v3.4c0,0-3.3,1.5-4.1,2.6c-1.6,1.6-3.2,3.2-4.9,4.6v1.8l0.7,1.2C291.9,268.6,290.9,267.1,284.1,264.5z"/>
					<path class="st0" d="M274.5,285.2c0,0-19.4,7.2-20.1,8.5s19-4.5,19-4.5l-7.2,4.6l5.4-0.9l-3,14.5l7.5-18.1l4.6,3.6l-1.2-6.6"/>
					<path class="st42" d="M359.9,299c0,0,0.5,2.3-1,2.5s-6.3,3.2-3.4,5.2c2.2,1.5,5.3,1.1,7-1c0.7,1.6,3.7,2,4.3,1.8s0-6.2,0-6.2
						L359.9,299z"/>
					<path class="st55" d="M359.8,296.8c0.3,1,0.5,2.1,0.7,3.2c-0.1,0.4,2.5,0.8,3.2,1.1s1.8,0.1,1.9,1.4c0.1,1.2,0.2,2.4,0.5,3.6
						c0.2,0.8-0.3,0.7,0.4,1.3s1.6,1.3,2.2,0.9c0.9-0.3,1.5-1.3,1.4-2.3c0-1.7,0.8-2.4-0.4-4.2s-1.8-2.8-2.6-3.1
						c-0.7-0.2-1.4-0.6-2-1c-0.6-0.6-1.2-1.1-2-1.5C362.8,296,359.8,296.8,359.8,296.8z"/>
					<path class="st56" d="M306.2,210.1c1.3-1.1,2.7-2,4.4-2.4c3-0.8,6.2-0.5,9,0.9c-0.7-1.5-1.9-2.6-3.4-3.4
						c-1.4-0.7-2.9-0.9-4.4-0.7c-1.1,0.1-2.1,0.4-3,1C307.3,206.6,306.4,208.3,306.2,210.1z"/>
					<path class="st55" d="M362.5,305.6c0.6-1.1,1.2-2.4,1.5-3.6"/>
					<path class="st31" d="M362.3,305.5c0.7-1.1,1.3-2.3,1.8-3.5c-0.3,1.3-0.7,2.6-1.3,3.8L362.3,305.5L362.3,305.5z"/>
					<path class="st57" d="M310,234.1c6.6-3,14.3-1.3,19.1,4.1"/>
					<path class="st58" d="M316.3,238.2c2.1-1.9,3.9-3.3,6.5-1.1c-1.1-0.4-2.2-0.4-3.3-0.3C318.5,237.2,317.5,238.1,316.3,238.2
						L316.3,238.2z"/>
					<path class="st31" d="M323.9,203.5c-0.4,2.4-2.5,5.6-5.3,4s-3.8-5.2-6.2-6.7c-1.5-0.9-3.1-0.6-4.6,0.1c3.3-3.9,7.4-1,9.5,2.3
						C319.9,207.2,320.9,207.3,323.9,203.5L323.9,203.5z"/>
					<path class="st56" d="M330.9,213.9c1.3-1.1,2.9-1.9,4.6-2.4c2.9-0.7,6-0.2,8.6,1.2c-0.6-1.6-1.7-2.9-3.2-3.8
						c-1.3-0.7-2.9-0.9-4.4-0.7c-1.1,0.1-2.1,0.4-3,1C332,210.5,331.1,212.1,330.9,213.9z"/>
					<path class="st47" d="M329.9,204.5c0,0,1.9,3.8,2.3,3.8s11.2-0.7,12.2-0.5s1.8,2.3,1.6,4c0,0,0.1-1.5-2.2-2.1
						s-12.1,0.1-12.1,0.1c-0.8-1.2-1.6-2.6-2.1-3.9C329.6,205.3,329.8,204.8,329.9,204.5z"/>
				</g>
			</g>
		</g>
	</g>
</g>
</svg>
